# xmcd CD database file
#
# Track frame offsets:
#	150
#	7804
#	23859
#	44189
#	51058
#	58038
#	74430
#	83511
#	91878
#	107259
#	116414
#	127369
#	147360
#	157491
#	176397
#	185438
#	194068
#	209747
#
# Disc length: 2955 seconds
#
# Revision: 0
# Processed by: cddbd v1.5.1PL0 Copyright (c) Steve Scherf et al.
# Submitted via: CDex 1.51
#
DISCID=0a0b8912
DTITLE=Frederick Rousseau - Grounds Of Legend
DYEAR=0000
DGENRE=New Age
TTITLE0=The Wing Of The Fisherman: Santa Catalina
TTITLE1=The Wing Of The Fisherman: Song Of The Solomon Islands
TTITLE2=The Wing Of The Fisherman: Wapo and The Kite
TTITLE3=The Wing Of The Fisherman: The Dream De Fica-Fica
TTITLE4=The Wing Of The Fisherman: The Wing Of The Fisherman
TTITLE5=The Wing Of The Fisherman: Flight Of The Frigate
TTITLE6=Ema, The Child Of The Forest: The Good-Bye With The Forest
TTITLE7=Ema, The Child Of The Forest: Hunting De Maymayan
TTITLE8=Ema, The Child Of The Forest: Ema and Rubens
TTITLE9=Ema, The Child Of The Forest: Spirits Agta and Anito
TTITLE10=Ema, The Child Of The Forest: The Way Of River
TTITLE11=Ema, The Child Of The Forest: Agta Jungle
TTITLE12=Knights Of The Sumba Island: Pasola
TTITLE13=Knights Of The Sumba Island: Knights Of The Sumba Island
TTITLE14=Knights Of The Sumba Island: Warlike Dance
TTITLE15=Knights Of The Sumba Island: The Nyale Goddess
TTITLE16=Knights Of The Sumba Island: Cutters Of Heads
TTITLE17=Frederick Rousseau - Knights Of The Sumba Island: Sumbanaise Celebration
EXTD=YEAR: 0000
EXTT0=
EXTT1=
EXTT2=
EXTT3=
EXTT4=
EXTT5=
EXTT6=
EXTT7=
EXTT8=
EXTT9=
EXTT10=
EXTT11=
EXTT12=
EXTT13=
EXTT14=
EXTT15=
EXTT16=
EXTT17=
PLAYORDER=
